<?xml version="1.0" encoding="UTF-8" standalone="no"?>
<svg
   width="16"
   height="16"
   version="1.1"
   id="svg13939"
   sodipodi:docname="one.zagura.Papier-symbolic.svg"
   inkscape:version="1.2.2 (b0a8486541, 2022-12-01)"
   xmlns:inkscape="http://www.inkscape.org/namespaces/inkscape"
   xmlns:sodipodi="http://sodipodi.sourceforge.net/DTD/sodipodi-0.dtd"
   xmlns="http://www.w3.org/2000/svg"
   xmlns:svg="http://www.w3.org/2000/svg">
  <defs
     id="defs13943" />
  <sodipodi:namedview
     id="namedview13941"
     pagecolor="#505050"
     bordercolor="#eeeeee"
     borderopacity="1"
     inkscape:showpageshadow="0"
     inkscape:pageopacity="0"
     inkscape:pagecheckerboard="0"
     inkscape:deskcolor="#505050"
     showgrid="false"
     inkscape:zoom="14.75"
     inkscape:cx="8"
     inkscape:cy="8"
     inkscape:window-width="1280"
     inkscape:window-height="1043"
     inkscape:window-x="20"
     inkscape:window-y="20"
     inkscape:window-maximized="0"
     inkscape:current-layer="svg13939" />
  <path
     id="path1037"
     style="display:inline;fill:#2e3436;fill-opacity:1;stroke-width:1.2;paint-order:markers stroke fill;enable-background:new"
     d="m 5.0146939,-0.051 c -1.662,0 -3,1.338002 -3,3 v 10 c 0,1.661998 1.338,3 3,3 h 6.0000001 c 1.662,0 3,-1.338002 3,-3 v -2.464844 l -2,2.003906 V 12.949 c 0,0.553999 -0.446,1 -1,1 h -5.0000001 -1 c -0.554,0 -1,-0.446001 -1,-1 v -10 c 0,-0.553999 0.446,-1 1,-1 h 1 5.0000001 c 0.554,0 1,0.446001 1,1 v 2.46875 l 2,-2.005859 V 2.949 c 0,-1.661998 -1.338,-3 -3,-3 z m 9.2343801,5 c -0.16537,0.007 -0.33072,0.064 -0.45313,0.185547 L 7.9990739,10.945094 V 12.949 h 2.0312401 l 5.79883,-5.810547 c 0.24263,-0.24263 0.21328,-0.759376 0,-0.972656 l -1.03125,-1.03125 C 14.674624,5.011277 14.461674,4.93939 14.249074,4.949 Z" />
</svg>
