<?xml version="1.0" encoding="UTF-8"?>
<svg height="128px" viewBox="0 0 128 128" width="128px" xmlns="http://www.w3.org/2000/svg" xmlns:xlink="http://www.w3.org/1999/xlink">
    <linearGradient id="a" gradientUnits="userSpaceOnUse" x1="24" x2="24" y1="16" y2="56">
        <stop offset="0" stop-color="#4a4752"/>
        <stop offset="1" stop-color="#383645"/>
    </linearGradient>
    <linearGradient id="b" gradientUnits="userSpaceOnUse" x1="24" x2="108" y1="128" y2="36">
        <stop offset="0" stop-color="#4a4752"/>
        <stop offset="1" stop-color="#7c787d"/>
    </linearGradient>
    <linearGradient id="c" gradientUnits="userSpaceOnUse" x1="11.999702" x2="116.000427" y1="109.999993" y2="109.999993">
        <stop offset="0" stop-color="#3d3846"/>
        <stop offset="0.0357168" stop-color="#5e566c"/>
        <stop offset="0.071431" stop-color="#3d3846"/>
        <stop offset="0.928571" stop-color="#3d3846"/>
        <stop offset="0.964285" stop-color="#5e566c"/>
        <stop offset="1" stop-color="#3d3846"/>
    </linearGradient>
    <path d="m 21.976562 12.023438 c -5.527343 0 -9.976562 4.460937 -9.976562 10 v 86.03125 c 0 5.542968 4.449219 10 9.976562 10 h 84.042969 c 5.53125 0 9.980469 -4.457032 9.980469 -10 v -72.085938 c 0 -6.628906 -5.359375 -12 -11.972656 -12 h -46.027344 c -2.453125 0 -4.695312 -1.386719 -5.796875 -3.582031 l -1.503906 -2.992188 c -1.65625 -3.292969 -5.019531 -5.371093 -8.699219 -5.371093 z m 0 0" fill="url(#a)"/>
    <path d="m 28.226562 35.953125 c -2.746093 0 -5.226562 1.542969 -7.027343 4.046875 c -0.941407 1.304688 -3.199219 5 -4.199219 7 l 16.519531 -3 c 2.703125 -0.492188 5.78125 -5.101562 8.027344 -8.046875 z m 0 0" fill-opacity="0.152941"/>
    <path d="m 31.027344 35.953125 c -2.746094 0 -5.226563 1.542969 -7.027344 4.046875 c -0.960938 1.335938 -2.074219 2.816406 -3.28125 4.085938 c 0.414062 -0.050782 0.832031 -0.085938 1.257812 -0.085938 h 36.113282 c -1.589844 -4.761719 -5.03125 -8.046875 -9.042969 -8.046875 z m 0 0" fill="#d1684e"/>
    <path d="m 46.226562 35.953125 c -2.746093 0 -5.226562 1.542969 -7.027343 4.046875 c -0.941407 1.304688 -2.023438 2.75 -3.199219 4 h 15.519531 c 2.746094 0 5.78125 -5.101562 8.027344 -8.046875 z m 0 0" fill-opacity="0.152941"/>
    <path d="m 49.046875 35.953125 c -2.746094 0 -5.226563 1.542969 -7.027344 4.046875 c -0.941406 1.304688 -2.023437 2.75 -3.199219 4 h 33.519532 c 1.003906 0 2.046875 -0.722656 3.074218 -1.738281 c -1.78125 -3.804688 -4.84375 -6.308594 -8.347656 -6.308594 z m 0 0" fill="#f2a44b"/>
    <path d="m 64.226562 35.953125 c -2.746093 0 -5.226562 1.542969 -7.027343 4.046875 c -0.941407 1.304688 -2.023438 2.75 -3.199219 4 h 15.519531 c 2.746094 0 5.78125 -5.101562 8.027344 -8.046875 z m 0 0" fill-opacity="0.152941"/>
    <path d="m 67.046875 35.953125 c -2.746094 0 -5.226563 1.542969 -7.027344 4.046875 c -0.941406 1.304688 -2.023437 2.75 -3.199219 4 h 15.519532 c 2.746094 0 5.78125 -5.101562 8.027344 -8.046875 z m 0 0" fill="#fff26b"/>
    <path d="m 84.679688 33 c -2.746094 0 -7.046876 2.808594 -8.847657 5.3125 c -0.9375 1.304688 -3.65625 4.4375 -4.832031 5.6875 h 15.519531 c 2.746094 0 9.234375 -8.054688 11.480469 -11 z m 0 0" fill-opacity="0.152941"/>
    <path d="m 88 32 c -2.746094 0 -4.675781 0.785156 -6.476562 2.574219 c -2.273438 2.253906 -5.933594 9.425781 -9.183594 9.425781 h -50.363282 c -5.527343 0 -9.976562 4.460938 -9.976562 10 v 52 c 0 5.539062 4.449219 10 9.976562 10 h 84.042969 c 5.53125 0 9.980469 -4.460938 9.980469 -10 v -64 c 0 -5.539062 -4.449219 -10 -9.980469 -10 z m 0 0" fill="url(#b)"/>
    <path d="m 12 105 v 4 c 0 4.984375 4.015625 9 9 9 h 86 c 4.984375 0 9 -4.015625 9 -9 v -4 c 0 4.984375 -4.015625 9 -9 9 h -86 c -4.984375 0 -9 -4.015625 -9 -9 z m 0 0" fill="url(#c)"/>
    <path d="m 58 60 c -2.664062 0 -4.546875 1.632812 -5.289062 3.109375 c -0.742188 1.476563 -0.710938 2.890625 -0.710938 2.890625 l 0.0625 24.945312 l 11.992188 -4.804687 l 12.007812 4.804687 l -0.0625 -24.953124 c 0 -0.007813 0.023438 -1.414063 -0.710938 -2.882813 c -0.742187 -1.476563 -2.625 -3.109375 -5.289062 -3.109375 z m 0 4 h 12 c 1.390625 0.023438 2.007812 0.734375 2 2 l 0.046875 19.039062 l -7.992187 -3.203124 l -8.007813 3.203124 l -0.046875 -19.046874 c -0.015625 -1.296876 0.796875 -1.992188 2 -1.992188 z m 0 0" fill="#3d3846"/>
</svg>
